<svg width="75" height="100" viewBox="0 0 75 100" fill="none" xmlns="http://www.w3.org/2000/svg">
<path fill-rule="evenodd" clip-rule="evenodd" d="M72.5 2.5H2.5V97.5H72.5V2.5ZM0 0V100H75V0H0Z" fill="#3B5898"/>
<path d="M60.9766 68.6929H55.5322V83.5H51.8701V68.6929H46.499V65.7266H60.9766V68.6929Z" fill="#3B5898"/>
<path d="M26.6821 76.2368H19.6509V83.5H15.9888V65.7266H27.561V68.6929H19.6509V73.2827H26.6821V76.2368Z" fill="#3B5898"/>
<path d="M52.2241 30.5581H60V33.5H48.562V15.7266H52.2241V30.5581Z" fill="#3B5898"/>
<path d="M24.4604 29.8379H18.0396L16.8188 33.5H12.9248L19.541 15.7266H22.9346L29.5874 33.5H25.6934L24.4604 29.8379ZM19.0283 26.8716H23.4717L21.2378 20.2188L19.0283 26.8716Z" fill="#3B5898"/>
</svg>
